# xmcd CD database file
#
# Track frame offsets:
#	150
#	16945
#	34970
#	50814
#	68459
#	79651
#	96566
#	116899
#	124968
#	139840
#	155213
#	166869
#	194844
#	212790
#	223446
#	237086
#	245267
#
# Disc length: 3422 seconds
#
# Revision: 0
# Processed by: cddbd v1.5.1PL2 Copyright (c) Steve Scherf et al.
# Submitted via: Feurio! 1.68 - http://www.feurio.com
#
DISCID=080d5c11
DTITLE=Janis Joplin - Pearl
DYEAR=1900
DGENRE=Blues
TTITLE0=Move Over
TTITLE1=Cry Baby
TTITLE2=A Woman Left Lonely
TTITLE3=Half Moon
TTITLE4=Buried Alive In The Blues
TTITLE5=My Baby
TTITLE6=Me And Bobby McGee
TTITLE7=Mercedes Benz
TTITLE8=Trust Me
TTITLE9=Get It While You Can
TTITLE10=Amazing Grace/Hi Heel Sneekers
TTITLE11=Bo Diddley
TTITLE12=Janis Joplin &Jorma Kaukonen - Long Black Train
TTITLE13=Janis Joplin and Jorma Kaukonen - Easy Rider
TTITLE14=Janis Joplin &Jorma Kaukonen - Kansas City Blues
TTITLE15=Janis Joplin and Jorma Kaukonen - San Francisco Bay Blues
TTITLE16=Janis Joplin and Jorna Kaukonen - Mississippi River
EXTD=
EXTT0=
EXTT1=
EXTT2=
EXTT3=
EXTT4=
EXTT5=
EXTT6=
EXTT7=
EXTT8=
EXTT9=
EXTT10=
EXTT11=
EXTT12=
EXTT13=
EXTT14=
EXTT15=
EXTT16=
PLAYORDER=
